<svg width="30" height="30" viewBox="0 0 30 30" fill="none" xmlns="http://www.w3.org/2000/svg">
<path d="M27.5888 0H2.41125C1.08 0 0 1.08 0 2.41125V27.5888C0 28.92 1.08 30 2.41125 30H27.5888C28.92 30 30 28.92 30 27.5888V2.41125C30 1.08 28.92 0 27.5888 0ZM27.5888 27.6C10.7963 27.5963 2.4 27.5925 2.4 27.5888C2.40375 10.7963 2.4075 2.4 2.41125 2.4C19.2038 2.40375 27.6 2.4075 27.6 2.41125C27.5963 19.2038 27.5925 27.6 27.5888 27.6ZM4.4475 11.2463H8.89875V25.5638H4.4475V11.2463ZM6.675 9.28875C8.09625 9.28875 9.255 8.13375 9.255 6.70875C9.255 6.36994 9.18827 6.03445 9.05861 5.72143C8.92895 5.40841 8.73891 5.12399 8.49934 4.88441C8.25976 4.64484 7.97534 4.4548 7.66232 4.32514C7.3493 4.19548 7.01381 4.12875 6.675 4.12875C6.33619 4.12875 6.0007 4.19548 5.68768 4.32514C5.37466 4.4548 5.09024 4.64484 4.85067 4.88441C4.61109 5.12399 4.42105 5.40841 4.29139 5.72143C4.16173 6.03445 4.095 6.36994 4.095 6.70875C4.09125 8.13375 5.24625 9.28875 6.675 9.28875ZM16.1362 18.48C16.1362 16.6125 16.4925 14.805 18.8063 14.805C21.0863 14.805 21.12 16.9388 21.12 18.6V25.5638H25.5675V17.7113C25.5675 13.8562 24.735 10.89 20.2313 10.89C18.0675 10.89 16.6163 12.0788 16.02 13.2038H15.96V11.2463H11.6888V25.5638H16.1362V18.48Z" fill="white"/>
</svg>
