<?xml version="1.0" encoding="iso-8859-1"?>
<!-- Generator: Adobe Illustrator 18.0.0, SVG Export Plug-In . SVG Version: 6.00 Build 0)  -->
<!DOCTYPE svg PUBLIC "-//W3C//DTD SVG 1.1//EN" "http://www.w3.org/Graphics/SVG/1.1/DTD/svg11.dtd">
<svg version="1.1" id="Capa_1" xmlns="http://www.w3.org/2000/svg" xmlns:xlink="http://www.w3.org/1999/xlink" x="0px" y="0px"
	 viewBox="0 0 460 460" style="enable-background:new 0 0 460 460;" xml:space="preserve">
<g id="XMLID_463_">
	<path id="XMLID_470_" d="M308.834,211.599c-28.372-59.984-24.014-50.504-25.128-53.744l-26.122-75.933
		c-0.55-1.599-1.346-3.102-2.358-4.457L202.18,6.534c-5.386-7.203-15.595-8.678-22.8-3.289c-7.204,5.387-8.677,15.595-3.29,22.799
		l51.517,68.888l18.345,53.326l-123.25,58.297c-2.749,0.947-12.628,5.934-14.504,17.851L82.036,435.606
		c-1.603,12.945,8.486,24.391,21.581,24.391c10.803,0,20.164-8.053,21.526-19.05l23.732-191.574l23.96,30.611l49.508,164.55
		c3.455,11.485,15.566,17.996,27.055,14.54c11.486-3.456,17.995-15.569,14.54-27.054l-48.037-159.662l60.436-30.63l-15.222,69.872
		c-0.327,1.501-0.44,3.04-0.336,4.572l5.239,77.053c0.61,8.966,8.369,15.755,17.357,15.146c8.975-0.61,15.756-8.381,15.147-17.356
		l-5.082-74.743l17.805-81.731C313.141,225.25,311.347,217.826,308.834,211.599z"/>
	<circle id="XMLID_501_" cx="340.43" cy="156.854" r="37.693"/>
</g>
<g>
</g>
<g>
</g>
<g>
</g>
<g>
</g>
<g>
</g>
<g>
</g>
<g>
</g>
<g>
</g>
<g>
</g>
<g>
</g>
<g>
</g>
<g>
</g>
<g>
</g>
<g>
</g>
<g>
</g>
</svg>
